<svg width="20" height="18" viewBox="0 0 20 18" fill="none" xmlns="http://www.w3.org/2000/svg">
  <path fill-rule="evenodd" clip-rule="evenodd" d="M12.4773 1.44209L19.746 14.0572C19.906 14.4338 19.976 14.7399 19.996 15.058C20.036 15.8012 19.776 16.5236 19.2661 17.0795C18.7562 17.6334 18.0663 17.9604 17.3164 18H2.6789C2.36896 17.9812 2.05901 17.9108 1.76906 17.8018C0.319302 17.2172 -0.380581 15.5723 0.20932 14.1464L7.52809 1.43317C7.77804 0.986278 8.15798 0.600818 8.6279 0.353094C9.98767 -0.40098 11.7174 0.0944694 12.4773 1.44209ZM10.8675 9.75615C10.8675 10.2318 10.4776 10.6291 9.99765 10.6291C9.51773 10.6291 9.1178 10.2318 9.1178 9.75615V6.9529C9.1178 6.47628 9.51773 6.09082 9.99765 6.09082C10.4776 6.09082 10.8675 6.47628 10.8675 6.9529V9.75615ZM9.99765 14.0177C9.51773 14.0177 9.1178 13.6203 9.1178 13.1457C9.1178 12.6691 9.51773 12.2727 9.99765 12.2727C10.4776 12.2727 10.8675 12.6601 10.8675 13.1348C10.8675 13.6203 10.4776 14.0177 9.99765 14.0177Z" fill="#2F3E46"/>
</svg>
