<?xml version="1.0" standalone="no"?>
<!DOCTYPE svg PUBLIC "-//W3C//DTD SVG 20010904//EN"
 "http://www.w3.org/TR/2001/REC-SVG-20010904/DTD/svg10.dtd">
<svg version="1.0" xmlns="http://www.w3.org/2000/svg"
 width="400.000000pt" height="400.000000pt" viewBox="0 0 400.000000 400.000000"
 preserveAspectRatio="xMidYMid meet">

<g transform="translate(0.000000,400.000000) scale(0.100000,-0.100000)"
fill="#000000" stroke="none">
<path d="M0 2000 l0 -2000 2000 0 2000 0 0 2000 0 2000 -2000 0 -2000 0 0
-2000z m2236 1185 c182 -32 352 -107 507 -223 188 -142 344 -355 416 -569 82
-244 83 -582 1 -823 -31 -91 -112 -243 -170 -321 -65 -87 -196 -222 -211 -217
-6 2 -18 22 -27 43 -8 22 -26 55 -40 74 -25 33 -25 35 -7 45 36 21 96 80 111
108 8 15 21 28 30 28 30 0 74 56 74 94 0 19 -5 38 -11 42 -8 4 -9 22 -4 53 10
66 10 94 -2 197 -8 71 -17 104 -44 154 -48 90 -112 157 -178 187 -124 56 -161
65 -256 61 -68 -2 -89 0 -88 10 4 16 -24 16 -30 0 -3 -8 -6 -7 -6 4 -1 9 8 20
19 23 11 3 20 9 20 13 0 12 -40 33 -51 26 -13 -8 -7 28 6 38 6 4 0 8 -12 8
-12 0 -29 8 -39 17 -15 16 -16 15 -9 -16 6 -29 5 -32 -7 -20 -8 7 -13 21 -11
30 3 9 -3 29 -12 43 l-17 26 -19 -36 c-21 -41 -27 -74 -16 -91 9 -15 -42 -1
-115 31 l-53 24 80 75 c44 41 82 74 85 72 3 -2 6 4 6 13 0 14 -10 17 -63 15
-39 -2 -63 1 -63 8 0 6 -9 8 -21 4 -13 -4 -19 -3 -16 2 4 6 -4 8 -18 5 -15 -2
-25 0 -25 7 0 11 47 91 59 101 11 9 59 110 52 110 -3 0 -42 -14 -85 -30 -43
-17 -82 -28 -87 -24 -5 3 -9 0 -9 -5 0 -20 -17 -11 -28 14 -7 15 -12 72 -12
130 0 65 -4 105 -10 105 -6 0 -28 -11 -50 -25 -22 -14 -43 -25 -48 -25 -5 0
-34 -25 -65 -55 -31 -30 -58 -55 -60 -55 -3 0 -37 41 -76 90 -39 50 -75 90
-80 90 -4 0 -11 -31 -14 -69 -3 -38 -15 -92 -27 -119 l-22 -50 -47 24 c-52 27
-147 55 -155 46 -4 -3 0 -12 8 -21 19 -23 56 -127 56 -160 l0 -29 -82 -6 c-46
-4 -105 -9 -131 -12 l-48 -6 53 -57 c60 -63 102 -126 94 -140 -3 -5 -44 -35
-91 -67 -84 -57 -96 -74 -49 -74 35 0 97 -34 133 -72 l29 -32 -59 -65 -59 -66
76 -25 c75 -25 76 -25 69 -55 -19 -84 -22 -106 -13 -111 5 -3 33 -3 62 0 l53
7 7 -50 c7 -56 12 -59 58 -35 19 10 33 12 37 6 3 -5 29 -21 56 -34 81 -38 71
-54 -65 -105 -63 -24 -118 -47 -123 -52 -5 -5 -31 -82 -57 -171 -27 -89 -51
-165 -55 -168 -10 -10 -98 91 -159 183 -146 218 -206 421 -206 695 0 229 35
382 131 570 120 234 300 411 544 533 105 52 163 72 283 97 114 24 372 27 498
5z m-735 -898 c38 -25 63 -84 51 -118 -8 -19 -16 -21 -115 -22 -112 -2 -117 0
-117 45 0 33 28 82 58 100 38 24 83 22 123 -5z m699 -23 c0 -8 -5 -12 -10 -9
-6 4 -8 11 -5 16 9 14 15 11 15 -7z m-410 -26 c40 -21 45 -27 48 -62 l3 -38
-38 7 c-21 5 -72 11 -113 14 -72 6 -75 7 -78 33 -2 15 2 36 8 48 16 29 109 28
170 -2z m450 -75 c0 -7 8 -13 18 -13 13 0 14 -2 3 -9 -10 -7 -11 -13 -2 -29
10 -18 8 -24 -16 -38 -78 -48 -110 -73 -150 -120 -36 -41 -49 -50 -69 -46 -32
6 -30 17 6 32 38 16 38 25 -2 46 -18 9 -48 28 -66 42 -32 24 -33 27 -16 39 10
7 24 13 32 13 10 0 101 40 175 78 4 2 2 -8 -4 -22 -7 -14 -16 -23 -20 -20 -12
7 -42 -44 -35 -61 5 -13 10 -13 41 2 35 17 49 48 44 98 -1 11 -1 35 -1 54 l2
35 30 -34 c17 -18 30 -40 30 -47z m-339 -420 c13 -16 12 -17 -3 -4 -10 7 -18
15 -18 17 0 8 8 3 21 -13z m34 -23 c-4 -12 0 -31 8 -43 18 -28 28 -125 13
-131 -6 -2 -4 -5 5 -5 9 -1 24 -12 33 -26 15 -23 15 -26 -4 -45 -24 -24 -26
-67 -3 -100 22 -32 33 -40 60 -40 14 0 49 -27 97 -75 l74 -74 -33 -63 c-36
-68 -61 -157 -71 -253 -8 -72 -11 -67 -53 95 -17 63 -53 197 -81 298 -27 100
-50 188 -50 195 0 8 -40 23 -107 40 -58 15 -108 28 -110 30 -9 10 -11 47 -2
47 6 0 17 7 26 15 8 9 20 14 26 12 7 -2 23 15 38 37 21 33 34 43 74 54 26 7
45 15 42 18 -3 4 0 12 6 20 17 19 19 17 12 -6z m486 -67 c32 -96 -42 -193
-148 -193 -37 0 -132 48 -134 67 0 5 -1 29 -2 54 l-3 45 82 11 c92 13 139 33
149 64 6 19 8 20 26 4 10 -10 23 -33 30 -52z m176 8 c15 -7 67 -18 116 -24
l87 -11 0 -29 c0 -41 -34 -92 -74 -111 -50 -24 -126 -21 -167 7 -69 46 -86
140 -37 203 l21 26 13 -24 c7 -13 25 -30 41 -37z m-633 28 c-6 -11 -24 -2 -24
11 0 5 7 7 15 4 8 -4 12 -10 9 -15z"/>
<path d="M2098 2433 c7 -3 16 -2 19 1 4 3 -2 6 -13 5 -11 0 -14 -3 -6 -6z"/>
<path d="M2201 2395 c1 -19 18 -51 18 -35 0 8 -4 22 -9 30 -5 8 -9 11 -9 5z"/>
<path d="M2181 2344 c0 -11 3 -14 6 -6 3 7 2 16 -1 19 -3 4 -6 -2 -5 -13z"/>
<path d="M2230 2332 c0 -6 -7 -9 -15 -6 -11 5 -13 2 -9 -11 6 -15 8 -15 22 -1
9 9 13 19 9 22 -4 4 -7 2 -7 -4z"/>
<path d="M2355 2140 c3 -5 16 -10 28 -9 21 0 21 1 2 9 -28 12 -37 12 -30 0z"/>
<path d="M1805 1600 c3 -5 8 -10 11 -10 2 0 4 5 4 10 0 6 -5 10 -11 10 -5 0
-7 -4 -4 -10z"/>
</g>
</svg>
